<svg width="139" height="24" viewBox="0 0 139 24" fill="none" xmlns="http://www.w3.org/2000/svg">
<path d="M47.448 18.6825V15.602H39.528V1.26681H36V18.6825H47.448Z" fill="white"/>
<path d="M58.9656 7.57332C58.3896 6.96692 57.7176 6.50606 56.9496 6.16648C56.1816 5.85116 55.3416 5.68137 54.4296 5.68137C53.5176 5.68137 52.6536 5.85116 51.8856 6.16648C51.1176 6.50606 50.4456 6.96692 49.8936 7.57332C49.3416 8.17971 48.9336 8.88313 48.6456 9.68357C48.3576 10.5083 48.2376 11.3815 48.2376 12.3032C48.2376 13.2492 48.3576 14.1224 48.6456 14.9228C48.9336 15.7475 49.3416 16.4509 49.8936 17.0331C50.4456 17.6637 51.1176 18.1488 51.8856 18.4642C52.6536 18.8037 53.5176 18.9493 54.4296 18.9493C55.3416 18.9493 56.1816 18.8037 56.9496 18.4642C57.7176 18.1488 58.3896 17.6637 58.9656 17.0331C59.4936 16.4509 59.9016 15.7475 60.1896 14.9228C60.4776 14.1224 60.6216 13.2492 60.6216 12.3032C60.6216 11.3815 60.4776 10.5083 60.1896 9.68357C59.9016 8.88313 59.4936 8.17971 58.9656 7.57332ZM54.4296 8.49504C55.2936 8.49504 55.9896 8.83462 56.4936 9.51378C56.9976 10.1929 57.2616 11.1147 57.2616 12.3032C57.2616 13.516 56.9976 14.4377 56.4936 15.1169C55.9896 15.796 55.2936 16.1356 54.4296 16.1356C53.5176 16.1356 52.8216 15.796 52.3176 15.1169C51.8136 14.4377 51.5736 13.516 51.5736 12.3032C51.5736 11.1389 51.8136 10.1929 52.3416 9.51378C52.8456 8.83462 53.5416 8.49504 54.4296 8.49504Z" fill="white"/>
<path d="M69.8451 17.4939C70.1331 18.0518 70.5891 18.4157 71.2611 18.6097C71.9331 18.8037 72.7731 18.828 73.8291 18.6825V16.1356C73.4451 16.1841 73.1811 16.1599 73.0371 16.0386C72.8691 15.9173 72.7971 15.6748 72.7971 15.3352V10.1202C72.7971 8.68908 72.3411 7.59757 71.4771 6.82139C70.5891 6.06946 69.3171 5.68137 67.6851 5.68137C66.2931 5.68137 65.1171 6.0452 64.1331 6.74862C63.1491 7.4763 62.5011 8.42227 62.1891 9.58655L65.3811 10.1929C65.5251 9.61081 65.7651 9.19846 66.1251 8.90739C66.4611 8.64057 66.9411 8.49504 67.5651 8.49504C68.2131 8.49504 68.6931 8.64057 69.0291 8.93164C69.3411 9.22271 69.5091 9.68357 69.5091 10.2657V10.4598L66.3651 11.0662C64.8051 11.3572 63.6531 11.8181 62.9091 12.4972C62.1651 13.1764 61.8051 14.0496 61.8051 15.1411C61.8051 16.2569 62.1891 17.1786 63.0051 17.8578C63.7971 18.5612 64.8291 18.9008 66.1011 18.9008C66.8931 18.9008 67.6131 18.7795 68.2611 18.5369C68.8851 18.2944 69.4131 17.9548 69.8451 17.4939ZM66.7731 16.3297C66.2451 16.3297 65.8371 16.2084 65.5491 15.9658C65.2611 15.7233 65.1171 15.3837 65.1171 14.9471C65.1171 14.5347 65.2611 14.1951 65.5491 13.9283C65.8371 13.6858 66.3411 13.4917 67.0371 13.3462L69.5091 12.8368V14.1466C69.5091 14.8015 69.2451 15.3352 68.7171 15.7233C68.1891 16.1356 67.5411 16.3297 66.7731 16.3297Z" fill="white"/>
<path d="M79.0838 18.6825V11.3087C79.0838 10.5568 79.2998 9.95039 79.7318 9.48953C80.1637 9.02867 80.7397 8.78611 81.4118 8.78611C82.0597 8.78611 82.5638 9.00441 82.8997 9.41676C83.2357 9.85336 83.4277 10.4598 83.4277 11.2359V18.6825H86.7878V10.2657C86.7878 8.85888 86.4038 7.74311 85.6357 6.91841C84.8677 6.09371 83.8358 5.68137 82.5397 5.68137C81.8197 5.68137 81.1717 5.8269 80.5957 6.09371C79.9958 6.36053 79.4918 6.74862 79.0838 7.23374V5.92392H75.7238V18.6825H79.0838Z" fill="white"/>
<path d="M95.1936 18.9493C96.0816 18.9493 96.9216 18.828 97.7136 18.5854C98.5056 18.3429 99.2016 18.0033 99.8256 17.5424C100.498 17.0573 101.026 16.4267 101.386 15.699C101.746 14.9713 101.938 14.1951 101.938 13.3219C101.938 12.4972 101.77 11.7696 101.458 11.1389C101.122 10.5325 100.642 10.0232 99.9696 9.58655C99.5616 9.34399 99.0816 9.12569 98.5296 8.93164C97.9536 8.7376 97.0656 8.49504 95.8416 8.20397C95.1216 8.05843 94.6416 7.93716 94.3536 7.86439C94.0656 7.79162 93.8496 7.71885 93.6576 7.64609C93.1776 7.4763 92.8416 7.25799 92.6496 7.01543C92.4336 6.77288 92.3376 6.45755 92.3376 6.06946C92.3376 5.43881 92.5776 4.95369 93.1056 4.5656C93.6336 4.17751 94.3056 3.98346 95.1696 3.98346C96.0336 3.98346 96.8016 4.20176 97.5216 4.58986C98.2176 4.97795 98.8656 5.58434 99.4416 6.38478L101.77 4.08048C101.098 3.13451 100.21 2.38258 99.0576 1.8247C97.9056 1.29107 96.6336 1 95.2656 1C94.4016 1 93.6096 1.12128 92.8416 1.36384C92.0736 1.60639 91.4256 1.92172 90.8496 2.35832C90.2016 2.84344 89.6976 3.44983 89.3616 4.129C89.0256 4.83241 88.8576 5.58434 88.8576 6.40904C88.8576 7.18523 88.9776 7.84013 89.2656 8.42227C89.5296 9.00441 89.9376 9.48953 90.5136 9.87762C90.8976 10.1687 91.3776 10.4112 91.9296 10.6295C92.4576 10.8478 93.2256 11.0662 94.2096 11.2845C94.9056 11.4542 95.4816 11.5998 95.9136 11.6968C96.3456 11.7938 96.6336 11.8666 96.8016 11.9151C97.3776 12.1091 97.8096 12.3517 98.0496 12.6185C98.2896 12.9096 98.4336 13.2492 98.4336 13.6858C98.4336 14.4135 98.1456 14.9713 97.5696 15.3594C96.9936 15.7718 96.2496 15.9658 95.3136 15.9658C94.3536 15.9658 93.4176 15.7233 92.5536 15.2381C91.6656 14.753 90.9216 14.0496 90.2976 13.1279L87.8736 15.505C88.5456 16.548 89.5536 17.3727 90.9216 18.0033C92.2656 18.634 93.7056 18.9493 95.1936 18.9493Z" fill="white"/>
<path d="M114.794 16.8875C115.226 16.3054 115.562 15.602 115.802 14.8258C116.042 14.0496 116.162 13.2007 116.162 12.3032C116.162 11.43 116.042 10.581 115.802 9.80485C115.562 9.02867 115.226 8.32525 114.794 7.74311C114.29 7.06395 113.69 6.55458 112.994 6.21499C112.274 5.87541 111.506 5.68137 110.666 5.68137C109.922 5.68137 109.25 5.8269 108.65 6.09371C108.026 6.36053 107.522 6.74862 107.138 7.23374V5.92392H103.778V23H107.138V17.3727C107.522 17.882 108.026 18.2701 108.65 18.5369C109.25 18.828 109.922 18.9493 110.666 18.9493C111.506 18.9493 112.274 18.7795 112.994 18.4157C113.69 18.0761 114.29 17.5667 114.794 16.8875ZM109.874 8.59206C110.786 8.59206 111.482 8.93164 112.01 9.58655C112.514 10.2657 112.778 11.1632 112.778 12.3032C112.778 13.4675 112.514 14.3892 112.01 15.0441C111.482 15.7233 110.786 16.0386 109.874 16.0386C109.01 16.0386 108.338 15.7475 107.834 15.1411C107.306 14.5347 107.066 13.71 107.066 12.667V11.9636C107.066 10.9449 107.306 10.1202 107.834 9.51378C108.338 8.90739 109.01 8.59206 109.874 8.59206Z" fill="white"/>
<path d="M128.176 7.57332C127.6 6.96692 126.928 6.50606 126.16 6.16648C125.393 5.85116 124.553 5.68137 123.641 5.68137C122.729 5.68137 121.864 5.85116 121.096 6.16648C120.328 6.50606 119.657 6.96692 119.104 7.57332C118.552 8.17971 118.145 8.88313 117.856 9.68357C117.568 10.5083 117.449 11.3815 117.449 12.3032C117.449 13.2492 117.568 14.1224 117.856 14.9228C118.145 15.7475 118.552 16.4509 119.104 17.0331C119.657 17.6637 120.328 18.1488 121.096 18.4642C121.864 18.8037 122.729 18.9493 123.641 18.9493C124.553 18.9493 125.393 18.8037 126.16 18.4642C126.928 18.1488 127.6 17.6637 128.176 17.0331C128.704 16.4509 129.112 15.7475 129.4 14.9228C129.688 14.1224 129.833 13.2492 129.833 12.3032C129.833 11.3815 129.688 10.5083 129.4 9.68357C129.112 8.88313 128.704 8.17971 128.176 7.57332ZM123.641 8.49504C124.505 8.49504 125.201 8.83462 125.704 9.51378C126.208 10.1929 126.473 11.1147 126.473 12.3032C126.473 13.516 126.208 14.4377 125.704 15.1169C125.201 15.796 124.505 16.1356 123.641 16.1356C122.729 16.1356 122.033 15.796 121.529 15.1169C121.025 14.4377 120.785 13.516 120.785 12.3032C120.785 11.1389 121.024 10.1929 121.552 9.51378C122.056 8.83462 122.753 8.49504 123.641 8.49504Z" fill="white"/>
<path d="M136.104 18.828C136.488 18.828 136.872 18.828 137.232 18.7795C137.592 18.7552 137.928 18.7067 138.264 18.634V15.8203C137.976 15.8688 137.76 15.8931 137.616 15.8931C137.472 15.8931 137.304 15.8931 137.112 15.8931C136.488 15.8931 136.056 15.8203 135.84 15.6262C135.624 15.4322 135.528 15.1169 135.528 14.656V8.76185H138.096V5.92392H135.528V2.28556H132.216V5.92392H130.536V8.76185H132.216V15.3594C132.216 16.5722 132.504 17.4697 133.128 18.0033C133.728 18.5612 134.712 18.828 136.104 18.828Z" fill="white"/>
<rect width="24" height="24" rx="8" fill="#3554D1"/>
<circle cx="12" cy="12" r="6" fill="white"/>
</svg>
