<svg width="103" height="22" viewBox="0 0 103 22" fill="none" xmlns="http://www.w3.org/2000/svg">
<path d="M11.448 17.496V14.448H3.528V0.263999H0V17.496H11.448Z" fill="#1656C1"/>
<path d="M22.9656 6.504C22.3896 5.904 21.7176 5.448 20.9496 5.112C20.1816 4.8 19.3416 4.632 18.4296 4.632C17.5176 4.632 16.6536 4.8 15.8856 5.112C15.1176 5.448 14.4456 5.904 13.8936 6.504C13.3416 7.104 12.9336 7.8 12.6456 8.592C12.3576 9.408 12.2376 10.272 12.2376 11.184C12.2376 12.12 12.3576 12.984 12.6456 13.776C12.9336 14.592 13.3416 15.288 13.8936 15.864C14.4456 16.488 15.1176 16.968 15.8856 17.28C16.6536 17.616 17.5176 17.76 18.4296 17.76C19.3416 17.76 20.1816 17.616 20.9496 17.28C21.7176 16.968 22.3896 16.488 22.9656 15.864C23.4936 15.288 23.9016 14.592 24.1896 13.776C24.4776 12.984 24.6216 12.12 24.6216 11.184C24.6216 10.272 24.4776 9.408 24.1896 8.592C23.9016 7.8 23.4936 7.104 22.9656 6.504ZM18.4296 7.416C19.2936 7.416 19.9896 7.752 20.4936 8.424C20.9976 9.096 21.2616 10.008 21.2616 11.184C21.2616 12.384 20.9976 13.296 20.4936 13.968C19.9896 14.64 19.2936 14.976 18.4296 14.976C17.5176 14.976 16.8216 14.64 16.3176 13.968C15.8136 13.296 15.5736 12.384 15.5736 11.184C15.5736 10.032 15.8136 9.096 16.3416 8.424C16.8456 7.752 17.5416 7.416 18.4296 7.416Z" fill="#1656C1"/>
<path d="M33.8451 16.32C34.1331 16.872 34.5891 17.232 35.2611 17.424C35.9331 17.616 36.7731 17.64 37.8291 17.496V14.976C37.4451 15.024 37.1811 15 37.0371 14.88C36.8691 14.76 36.7971 14.52 36.7971 14.184V9.024C36.7971 7.608 36.3411 6.528 35.4771 5.76C34.5891 5.016 33.3171 4.632 31.6851 4.632C30.2931 4.632 29.1171 4.992 28.1331 5.688C27.1491 6.408 26.5011 7.344 26.1891 8.496L29.3811 9.096C29.5251 8.52 29.7651 8.112 30.1251 7.824C30.4611 7.56 30.9411 7.416 31.5651 7.416C32.2131 7.416 32.6931 7.56 33.0291 7.848C33.3411 8.136 33.5091 8.592 33.5091 9.168V9.36L30.3651 9.96C28.8051 10.248 27.6531 10.704 26.9091 11.376C26.1651 12.048 25.8051 12.912 25.8051 13.992C25.8051 15.096 26.1891 16.008 27.0051 16.68C27.7971 17.376 28.8291 17.712 30.1011 17.712C30.8931 17.712 31.6131 17.592 32.2611 17.352C32.8851 17.112 33.4131 16.776 33.8451 16.32ZM30.7731 15.168C30.2451 15.168 29.8371 15.048 29.5491 14.808C29.2611 14.568 29.1171 14.232 29.1171 13.8C29.1171 13.392 29.2611 13.056 29.5491 12.792C29.8371 12.552 30.3411 12.36 31.0371 12.216L33.5091 11.712V13.008C33.5091 13.656 33.2451 14.184 32.7171 14.568C32.1891 14.976 31.5411 15.168 30.7731 15.168Z" fill="#1656C1"/>
<path d="M43.0838 17.496V10.2C43.0838 9.456 43.2998 8.856 43.7318 8.4C44.1637 7.944 44.7397 7.704 45.4118 7.704C46.0597 7.704 46.5638 7.92 46.8997 8.328C47.2357 8.76 47.4277 9.36 47.4277 10.128V17.496H50.7878V9.168C50.7878 7.776 50.4038 6.672 49.6357 5.856C48.8677 5.04 47.8358 4.632 46.5397 4.632C45.8197 4.632 45.1717 4.776 44.5957 5.04C43.9958 5.304 43.4918 5.688 43.0838 6.168V4.872H39.7238V17.496H43.0838Z" fill="#1656C1"/>
<path d="M59.1936 17.76C60.0816 17.76 60.9216 17.64 61.7136 17.4C62.5056 17.16 63.2016 16.824 63.8256 16.368C64.4976 15.888 65.0256 15.264 65.3856 14.544C65.7456 13.824 65.9376 13.056 65.9376 12.192C65.9376 11.376 65.7696 10.656 65.4576 10.032C65.1216 9.432 64.6416 8.928 63.9696 8.496C63.5616 8.256 63.0816 8.04 62.5296 7.848C61.9536 7.656 61.0656 7.416 59.8416 7.128C59.1216 6.984 58.6416 6.864 58.3536 6.792C58.0656 6.72 57.8496 6.648 57.6576 6.576C57.1776 6.408 56.8416 6.192 56.6496 5.952C56.4336 5.712 56.3376 5.4 56.3376 5.016C56.3376 4.392 56.5776 3.912 57.1056 3.528C57.6336 3.144 58.3056 2.952 59.1696 2.952C60.0336 2.952 60.8016 3.168 61.5216 3.552C62.2176 3.936 62.8656 4.536 63.4416 5.328L65.7696 3.048C65.0976 2.112 64.2096 1.368 63.0576 0.816C61.9056 0.288001 60.6336 0 59.2656 0C58.4016 0 57.6096 0.12 56.8416 0.36C56.0736 0.599999 55.4256 0.912 54.8496 1.344C54.2016 1.824 53.6976 2.424 53.3616 3.096C53.0256 3.792 52.8576 4.536 52.8576 5.352C52.8576 6.12 52.9776 6.768 53.2656 7.344C53.5296 7.92 53.9376 8.4 54.5136 8.784C54.8976 9.072 55.3776 9.312 55.9296 9.528C56.4576 9.744 57.2256 9.96 58.2096 10.176C58.9056 10.344 59.4816 10.488 59.9136 10.584C60.3456 10.68 60.6336 10.752 60.8016 10.8C61.3776 10.992 61.8096 11.232 62.0496 11.496C62.2896 11.784 62.4336 12.12 62.4336 12.552C62.4336 13.272 62.1456 13.824 61.5696 14.208C60.9936 14.616 60.2496 14.808 59.3136 14.808C58.3536 14.808 57.4176 14.568 56.5536 14.088C55.6656 13.608 54.9216 12.912 54.2976 12L51.8736 14.352C52.5456 15.384 53.5536 16.2 54.9216 16.824C56.2656 17.448 57.7056 17.76 59.1936 17.76Z" fill="#1656C1"/>
<path d="M78.7944 15.72C79.2264 15.144 79.5624 14.448 79.8024 13.68C80.0424 12.912 80.1624 12.072 80.1624 11.184C80.1624 10.32 80.0424 9.48 79.8024 8.712C79.5624 7.944 79.2264 7.248 78.7944 6.672C78.2904 6 77.6904 5.496 76.9944 5.16C76.2744 4.824 75.5064 4.632 74.6664 4.632C73.9224 4.632 73.2504 4.776 72.6504 5.04C72.0264 5.304 71.5224 5.688 71.1384 6.168V4.872H67.7784V21.768H71.1384V16.2C71.5224 16.704 72.0264 17.088 72.6504 17.352C73.2504 17.64 73.9224 17.76 74.6664 17.76C75.5064 17.76 76.2744 17.592 76.9944 17.232C77.6904 16.896 78.2904 16.392 78.7944 15.72ZM73.8744 7.512C74.7864 7.512 75.4824 7.848 76.0104 8.496C76.5144 9.168 76.7784 10.056 76.7784 11.184C76.7784 12.336 76.5144 13.248 76.0104 13.896C75.4824 14.568 74.7864 14.88 73.8744 14.88C73.0104 14.88 72.3384 14.592 71.8344 13.992C71.3064 13.392 71.0664 12.576 71.0664 11.544V10.848C71.0664 9.84 71.3064 9.024 71.8344 8.424C72.3384 7.824 73.0104 7.512 73.8744 7.512Z" fill="#1656C1"/>
<path d="M92.1765 6.504C91.6005 5.904 90.9285 5.448 90.1605 5.112C89.3925 4.8 88.5525 4.632 87.6405 4.632C86.7285 4.632 85.8645 4.8 85.0965 5.112C84.3285 5.448 83.6565 5.904 83.1045 6.504C82.5525 7.104 82.1445 7.8 81.8565 8.592C81.5685 9.408 81.4485 10.272 81.4485 11.184C81.4485 12.12 81.5685 12.984 81.8565 13.776C82.1445 14.592 82.5525 15.288 83.1045 15.864C83.6565 16.488 84.3285 16.968 85.0965 17.28C85.8645 17.616 86.7285 17.76 87.6405 17.76C88.5525 17.76 89.3925 17.616 90.1605 17.28C90.9285 16.968 91.6005 16.488 92.1765 15.864C92.7045 15.288 93.1125 14.592 93.4005 13.776C93.6885 12.984 93.8325 12.12 93.8325 11.184C93.8325 10.272 93.6885 9.408 93.4005 8.592C93.1125 7.8 92.7045 7.104 92.1765 6.504ZM87.6405 7.416C88.5045 7.416 89.2005 7.752 89.7045 8.424C90.2085 9.096 90.4725 10.008 90.4725 11.184C90.4725 12.384 90.2085 13.296 89.7045 13.968C89.2005 14.64 88.5045 14.976 87.6405 14.976C86.7285 14.976 86.0325 14.64 85.5285 13.968C85.0245 13.296 84.7845 12.384 84.7845 11.184C84.7845 10.032 85.0245 9.096 85.5525 8.424C86.0565 7.752 86.7525 7.416 87.6405 7.416Z" fill="#1656C1"/>
<path d="M100.104 17.64C100.488 17.64 100.872 17.64 101.232 17.592C101.592 17.568 101.928 17.52 102.264 17.448V14.664C101.976 14.712 101.76 14.736 101.616 14.736C101.472 14.736 101.304 14.736 101.112 14.736C100.488 14.736 100.056 14.664 99.84 14.472C99.624 14.28 99.528 13.968 99.528 13.512V7.68H102.096V4.872H99.528V1.272H96.216V4.872H94.536V7.68H96.216V14.208C96.216 15.408 96.504 16.296 97.128 16.824C97.728 17.376 98.712 17.64 100.104 17.64Z" fill="#1656C1"/>
</svg>
