<svg width="96" height="96" viewBox="0 0 96 96" fill="none" xmlns="http://www.w3.org/2000/svg">
<circle cx="48" cy="48" r="48" fill="#3554D1" fill-opacity="0.08"/>
<path d="M47.6893 59.0766C47.0099 59.0766 46.4585 58.5265 46.4585 57.8459V48.5093L43.6364 51.3314C43.1552 51.8127 42.3773 51.8127 41.8961 51.3314C41.4148 50.8502 41.4148 50.0723 41.8961 49.5911L46.8192 44.668C47.1712 44.316 47.6979 44.209 48.1607 44.401C48.6198 44.5917 48.9201 45.041 48.9201 45.5382V57.8459C48.9201 58.5265 48.3687 59.0766 47.6893 59.0766Z" fill="#3554D1"/>
<path d="M52.619 51.6921C52.3039 51.6921 51.9888 51.5714 51.7488 51.3314L46.8258 46.4084C46.3445 45.9271 46.3445 45.1493 46.8258 44.6681C47.307 44.1868 48.0848 44.1868 48.5661 44.6681L53.4892 49.5911C53.9704 50.0724 53.9704 50.8502 53.4892 51.3314C53.2492 51.5714 52.9341 51.6921 52.619 51.6921Z" fill="#3554D1"/>
<path d="M57.4043 64H39.0769C32.9698 64 28 59.0314 28 52.9231C28 49.6369 29.4769 46.528 31.9963 44.4258C31.7945 43.7834 31.6923 43.1249 31.6923 42.4615C31.6923 38.7286 34.7286 35.6923 38.4615 35.6923C39.2985 35.6923 40.1354 35.8572 40.9292 36.176C43.2689 33.5102 46.5772 32 50.1538 32C56.9403 32 62.4615 37.5212 62.4615 44.3077C62.4615 44.6585 62.4431 45.0215 62.4062 45.4006C65.4585 47.1815 67.3846 50.4726 67.3846 54.0197C67.3846 59.5225 62.9071 64 57.4043 64ZM38.4615 38.1538C36.0862 38.1538 34.1538 40.0862 34.1538 42.4615C34.1538 43.0831 34.3003 43.7058 34.5895 44.3089C34.8505 44.8529 34.6782 45.5065 34.1822 45.8498C31.8523 47.472 30.4615 50.1169 30.4615 52.9231C30.4615 57.6726 34.3262 61.5385 39.0769 61.5385H57.4043C61.5508 61.5385 64.9231 58.1662 64.9231 54.0197C64.9231 51.1212 63.2074 48.4468 60.5538 47.2074C60.0554 46.9748 59.7711 46.4394 59.8597 45.8966C59.9545 45.3083 60 44.7889 60 44.3077C60 38.8788 55.5828 34.4615 50.1538 34.4615C47.0191 34.4615 44.1403 35.9138 42.256 38.4468C41.8794 38.9526 41.1828 39.0917 40.6412 38.7717C39.9508 38.3618 39.2172 38.1538 38.4615 38.1538Z" fill="#3554D1"/>
</svg>
